<?xml version="1.0" standalone="no"?>
<!DOCTYPE svg PUBLIC "-//W3C//DTD SVG 20010904//EN"
 "http://www.w3.org/TR/2001/REC-SVG-20010904/DTD/svg10.dtd">
<svg version="1.0" xmlns="http://www.w3.org/2000/svg"
 width="252.000000pt" height="252.000000pt" viewBox="0 0 252.000000 252.000000"
 preserveAspectRatio="xMidYMid meet">
<metadata>
Created by potrace 1.14, written by Peter Selinger 2001-2017
</metadata>
<g transform="translate(0.000000,252.000000) scale(0.100000,-0.100000)"
fill="#000000" stroke="none">
<path d="M130 1386 l0 -504 115 -36 c63 -20 121 -39 130 -42 13 -5 15 26 16
272 l0 279 69 -145 c38 -80 84 -174 102 -209 l33 -65 97 -32 c113 -38 89 -52
207 123 46 68 87 125 92 129 5 3 9 -107 9 -275 l0 -280 103 -32 c56 -17 112
-35 125 -40 l22 -9 0 505 0 505 -23 9 c-13 5 -73 25 -135 44 l-111 35 -145
-221 -145 -222 -30 65 c-16 36 -81 177 -144 315 l-115 249 -109 37 c-59 19
-120 39 -135 43 l-28 6 0 -504z"/>
<path d="M465 1884 c6 -2 202 -60 437 -129 l427 -125 288 121 c158 67 297 125
308 129 11 5 -314 9 -725 9 -410 -1 -740 -2 -735 -5z"/>
<path d="M2197 1856 c-26 -8 -208 -79 -402 -157 l-355 -143 0 -509 c0 -403 3
-508 13 -504 6 3 185 75 397 161 400 162 488 208 545 282 92 121 112 304 41
383 -26 29 -75 51 -116 51 l-31 0 41 43 c107 111 132 294 50 372 -36 34 -108
42 -183 21z m-89 -268 c18 -18 15 -114 -5 -144 -9 -14 -33 -34 -53 -44 -48
-25 -287 -120 -301 -120 -6 0 -9 35 -7 96 l3 96 155 63 c160 66 188 73 208 53z
m60 -444 c3 -70 -15 -102 -76 -133 -40 -20 -337 -141 -346 -141 -4 0 -6 44 -6
98 l0 98 178 72 c121 49 188 71 212 69 l35 -2 3 -61z"/>
</g>
</svg>
